<svg xmlns="http://www.w3.org/2000/svg" viewBox="0 -880 1000 1000">
    <g transform="scale(1, -1)">
        <!-- ボディの枠 -->
        <rect x="0" y="-120" width="1000" height="1000"
            stroke="cyan" stroke-width="2" fill="none"/>
        <!-- グリフ座標系の原点 -->
        <circle cx="0" cy="0" r="8" fill="blue"/>
        <!-- グリフのアウトライン -->
        <path d="M226 696 130 698C135 674 136 633 136 610C136 552 137 432 147 346C174 89 264 -4 357 -4C425 -4 486 53 545 221L482 293C456 193 410 91 359 91C289 91 241 200 225 366C218 447 217 538 218 600C219 626 222 672 226 696ZM742 669 664 642C758 526 818 330 835 152L916 184C902 351 831 554 742 669Z"/>
    </g>
</svg>
